<?xml version="1.0" encoding="UTF-8" standalone="no"?>
<!-- Svg Vector Icons : http://www.onlinewebfonts.com/icon -->

<svg
   xmlns:dc="http://purl.org/dc/elements/1.1/"
   xmlns:cc="http://creativecommons.org/ns#"
   xmlns:rdf="http://www.w3.org/1999/02/22-rdf-syntax-ns#"
   xmlns:svg="http://www.w3.org/2000/svg"
   xmlns="http://www.w3.org/2000/svg"
   xmlns:sodipodi="http://sodipodi.sourceforge.net/DTD/sodipodi-0.dtd"
   xmlns:inkscape="http://www.inkscape.org/namespaces/inkscape"
   version="1.1"
   x="0px"
   y="0px"
   viewBox="0 0 1000 1000"
   enable-background="new 0 0 1000 1000"
   xml:space="preserve"
   id="svg4202"
   inkscape:version="0.91 r13725"
   sodipodi:docname="vaginainkscape.svg"><defs
     id="defs4212"><marker
       inkscape:stockid="Arrow1Lstart"
       orient="auto"
       refY="0.0"
       refX="0.0"
       id="Arrow1Lstart"
       style="overflow:visible"
       inkscape:isstock="true"><path
         id="path4218"
         d="M 0.0,0.0 L 5.0,-5.0 L -12.5,0.0 L 5.0,5.0 L 0.0,0.0 z "
         style="fill-rule:evenodd;stroke:none;stroke-width:1pt;stroke-opacity:1;fill:#000000;fill-opacity:1"
         transform="scale(0.8) translate(12.5,0)" /></marker></defs><sodipodi:namedview
     pagecolor="#ffffff"
     bordercolor="#666666"
     borderopacity="1"
     objecttolerance="10"
     gridtolerance="10"
     guidetolerance="10"
     inkscape:pageopacity="0"
     inkscape:pageshadow="2"
     inkscape:window-width="1920"
     inkscape:window-height="1027"
     id="namedview4210"
     showgrid="false"
     inkscape:zoom="0.60669762"
     inkscape:cx="1068.5309"
     inkscape:cy="535.36102"
     inkscape:window-x="0"
     inkscape:window-y="0"
     inkscape:window-maximized="1"
     inkscape:current-layer="g4206" /><metadata
     id="metadata4204"> Svg Vector Icons : http://www.onlinewebfonts.com/icon <rdf:RDF><cc:Work
     rdf:about=""><dc:format>image/svg+xml</dc:format><dc:type
       rdf:resource="http://purl.org/dc/dcmitype/StillImage" /><dc:title></dc:title></cc:Work></rdf:RDF></metadata><g
     inkscape:groupmode="layer"
     id="layer1"
     inkscape:label="Layer 1"
     style="display:inline"><g
       id="g5155"><g
         transform="matrix(1.0000023,0,0,0.91228379,13.98487,85.544121)"
         id="g4206"><path
           id="path4538"
           d="m 150.36563,300.40675 c 0,0.1 0,0.1 -0.1,0.2 -2.2,4.2 -7.3,4.7 -23.1,7.1 -2.3,0.3 -2.7,1.1 -1.1,2.4 6.2,5.2 3.5,13 -5.1,13 -5.5,0 -20.30001,-2.8 -26.900008,-2.8 -3.5,0 3.3,6.4 5.9,9 4.399998,4.5 7.299998,7.5 7.299998,11.4 -0.1,3.6 -3.1,6.7 -7.2,6.7 -1.999998,0 -4.399998,-0.8 -7.799998,-2.8 2.8,5.9 6.8,11.4 11.899998,16.7 15.70001,16.2 39.50001,26.8 60.30001,26.8 46.3,0 58.5,-23 59.3,-32 0.8,-9.5 -3.7,-20 -12.6,-29.6 -14.3,-14.8 -36.6,-24.3 -60.8,-26.1 z"
           style="stroke-width:0.1;stroke-miterlimit:4;stroke-dasharray:none"
           inkscape:connector-curvature="0" /><path
           sodipodi:nodetypes="cccccccccccc"
           inkscape:connector-curvature="0"
           id="path4778"
           d="m 401.84602,474.96999 c 0,0.4 0.0996,0.7 0.0996,1 -0.4,47 -21.99922,66 -17.19922,95 7.09828,42.98957 32.08963,77.48341 85.46289,134.55859 6.37567,-0.616 47.22368,1.12475 47.58524,-0.10786 34.19884,-41.25842 72.93212,-89.22638 80.95216,-134.45096 4.7,-28.9 -16.70078,-48.00039 -17.30078,-94.90039 l 0,-1 c -10.2,11.7 -32.59922,29.49922 -45.19922,38.69922 l -88.20117,3.5 c -12.6,-9.2 -35.99922,-30.59883 -46.19922,-42.29883 z"
           style="stroke-width:0.1;stroke-miterlimit:4;stroke-dasharray:none" /><path
           sodipodi:nodetypes="cccccccscsccccc"
           inkscape:connector-curvature="0"
           id="path4757"
           d="m 577.34602,649.76882 c -9.75785,23.41884 -30.42517,43.88523 -59.41662,55.73393 -8.26991,0.33088 -39.81156,-0.56091 -47.73191,0.0448 -42.26104,-17.39438 -56.45539,-36.38536 -64.15234,-55.67773 4.4,17.1 6.30078,37.99922 2.80078,80.19922 -2.2,25.7 11.69961,69.09922 15.09961,102.19922 1.1,10.3 -3.9,20.00117 -0.5,27.20117 0.6,1.3 1.39922,1.69922 2.19922,1.69922 6.8,0 21.7,-29.39922 66,-21.69922 43.9,-7.6 59.7,21.59961 66,21.59961 0.9,0 1.60117,-0.49922 2.20117,-1.69922 3.5,-7.1 -1.6,-16.90117 -0.5,-27.20117 3.5,-33.2 17.29961,-76.59922 15.09961,-102.19922 -3.5,-42.2 -1.49961,-63.00117 2.90039,-80.20117 z"
           style="stroke-width:0.1;stroke-miterlimit:4;stroke-dasharray:none" /><g
           id="g5112"><path
             inkscape:connector-curvature="0"
             style="stroke-width:0.1;stroke-miterlimit:4;stroke-dasharray:none"
             d="m 536.24729,513.76822 c 41,-51.4 109.57713,-176.82075 118.5,-228.29883 -1.39982,-12.93801 -6.9738,-45.9106 -8.80078,-62.70117 -30.40007,-48.77229 -98,-73.59883 -154.5,-72.29883 -1.59375,-0.0375 -3.21309,-0.0552 -4.85547,-0.0527 l 10e-6,-4e-5 c -50.91396,0.075 -124.07227,19.55469 -149.74414,72.35157 l -8.20117,62.60156 c 8.21342,45.76046 83.60039,184.19844 119.40039,231.89844"
             id="path4753" /></g><path
           sodipodi:nodetypes="cscsscccssccccsccccssscsccsc"
           inkscape:connector-curvature="0"
           id="path4208"
           d="m 339.09863,217.55041 c -22.27077,32.90567 -42.91064,43.92168 -81.37833,43.92168 -35.91028,0 -44.11571,-49.58068 -76.61613,-56.8765 -43.5825,-9.82704 -55.83675,-51.81643 -103.361924,-51.81643 -33.139768,0 -85.6736144,29.03557 -85.6736144,74.15059 0,62.08896 36.1238154,136.53386 56.3699694,149.48766 4.688578,2.97791 5.540218,2.68069 3.941838,-5.3596 -2.131173,-11.0182 -7.991902,-30.67168 -3.729554,-32.90509 l 0.214366,0 c 2.557409,0 21.310896,29.18272 27.917551,29.18272 0.85247,0 1.599212,-0.59616 1.918888,-2.0851 0.639351,-2.38231 -8.09973,-21.43905 -5.009506,-34.69065 1.172145,-4.91353 17.795307,23.37467 30.369226,25.0125 9.37716,1.04227 -26.426149,-28.88551 -11.294801,-39.45701 4.688577,-3.42457 28.024931,2.97789 33.565981,2.97789 1.27871,0 2.13076,-0.29721 2.23732,-0.8928 0.31968,-2.08452 -8.95051,-9.38093 -11.8276,-16.23008 -1.59839,-3.72233 -1.17131,-4.16902 1.3861,-5.21128 8.31157,-3.42458 35.58936,-2.08222 33.35162,-7.29349 -0.95902,-2.38233 -12.36039,-4.46685 -26.74582,-4.46685 -16.94283,0 -39.426297,5.2113 -41.131237,5.2113 -23.336365,0 -40.704592,-24.56932 -40.704592,-54.64599 0,-24.41869 11.721032,-38.41476 32.073754,-41.69043 1.172146,-0.1489 2.343459,-0.14832 3.409047,-0.14832 17.155954,0 37.827918,18.76071 58.180638,29.77889 24.18882,13.4005 47.10061,18.61181 50.19079,21.58968 23.86916,20.99412 35.58979,54.94264 68.94267,54.94264 24.61505,0 42.22596,-17.01167 72.80832,-17.01167"
           style="stroke-width:0.1;stroke-miterlimit:4;stroke-dasharray:none" /><path
           inkscape:connector-curvature="0"
           id="rect4513"
           transform="translate(-13.986014,-11.655012)"
           d="m 664.33594,156.17773 0,279.71875 358.97456,0 0,-279.71875 -358.97456,0 z m 35.84765,86.50586 c 0.0353,-6.8e-4 0.076,0.0174 0.11914,0.041 0.0186,1.4e-4 0.0163,0 0.0371,0 l 0.73438,0 6.80469,0 c 0.25369,0 0.44479,0.0624 0.57226,0.1582 -0.0586,-0.035 -0.0846,-0.0413 -0.16601,-0.0957 -0.12009,-0.0803 0.27711,0.0794 0.41601,0.11914 0.22696,0.0648 0.25343,0.11928 0.17969,0.16992 0.0202,0.0265 0.0171,0.0223 0.0547,0.0703 0.44131,0.66073 0.9103,1.30447 1.36914,1.95313 0.18393,0.26002 1.26064,1.4616 0.29492,1.74609 -0.12106,0.0131 -0.22654,0.002 -0.33984,-0.0137 -0.0902,0.11656 -0.22553,0.19814 -0.36133,0.25586 -0.28625,0.12167 -0.94392,0.13843 -1.28906,0.14453 0.004,0.003 0.0332,0.0176 0.0371,0.0215 10e-4,6e-5 0.003,-1e-4 0.004,0 0.36811,0.0281 0.49179,0.14421 0.7793,0.34179 0.16598,0.11407 0.33018,0.22799 0.49219,0.34766 0.86071,0.63584 0.74777,0.56265 1.56835,1.25195 2.17207,1.87229 -0.28455,-0.22883 1.82813,1.53125 0.45643,0.36677 0.8794,0.77076 1.32812,1.14649 0.38214,0.31998 0.77353,0.62995 1.15625,0.94922 0.11634,0.10456 0.3086,0.25702 0.40625,0.39843 0.0419,0.0606 0.041,0.23103 0.10547,0.19532 0.12177,-0.0675 0.0655,-0.34392 0.20313,-0.36524 0.51883,-0.0804 5.38686,0.007 5.47656,0.008 1.95018,-0.01 3.873,0.30783 5.81055,0.45899 0.10605,0.008 0.28112,-0.0649 0.37109,-0.0449 0.0208,-0.0308 0.0148,-0.0252 0.0371,-0.0586 0.0572,-0.0857 0.20764,0.006 0.31055,0.01 0.21955,0.008 0.43652,0.0186 0.65625,0.0195 0.50022,-0.0218 0.26422,-0.0442 0.82812,0.57422 0.003,0.83863 0.007,0.26621 -0.0176,1.36328 -0.0132,0.61118 -0.0835,0.90999 0.1211,1.4707 0.11997,0.32887 0.12096,0.29711 0.33594,0.3418 0.69456,0.28694 1.06838,0.94139 1.38476,1.58008 3.1e-4,0.001 0.002,0.003 0.002,0.004 0.0294,0.0317 0.0579,0.063 0.0879,0.0977 0.66688,0.77154 -0.12922,1.45242 -0.78321,0.66992 -0.0694,-0.0831 -0.0158,-0.009 0.0703,0.0176 0.0683,0.0209 0.25771,0.0949 0.21094,0.041 -0.96662,-1.11491 -0.62477,-0.5602 -0.51172,-0.37305 -0.16967,-0.34266 -0.284,-0.58105 -0.55273,-0.86914 -0.0507,-0.0544 -0.0958,-0.11577 -0.1582,-0.15625 -0.10491,-0.0681 -0.22562,-0.11086 -0.33789,-0.16602 -0.14824,-0.12392 -0.32541,-0.21806 -0.44336,-0.37109 -0.3187,-0.41351 -0.4309,-0.95529 -0.47266,-1.45899 -0.0235,-0.28293 0.0115,-0.56772 0.0176,-0.85156 0.0145,-0.67038 0.0161,-0.67432 0.0254,-0.88867 -0.14181,-0.003 -0.2839,-0.008 -0.42578,-0.0137 -0.21671,0.16078 -0.72989,0.0994 -0.85352,0.0898 -1.90961,-0.14825 -3.80449,-0.465 -5.72656,-0.45508 -1.03277,-0.013 -2.0648,-0.0373 -3.09766,-0.0391 -0.77136,-0.001 -1.54524,0.0869 -2.31445,0.0293 -1.17103,-0.0877 -1.39406,-0.53408 -1.19141,-0.25586 l -0.23437,-0.21094 c -0.38797,-0.32377 -0.78444,-0.6385 -1.17188,-0.96289 -0.43995,-0.36836 -0.8557,-0.76488 -1.30273,-1.125 -2.11895,-1.76537 0.28085,0.28892 -1.8418,-1.54101 -0.78845,-0.66409 -0.66679,-0.58262 -1.5,-1.19922 -0.15327,-0.11342 -0.31002,-0.22351 -0.46679,-0.33204 -0.0725,-0.0502 -0.16955,-0.0809 -0.23243,-0.13671 -0.19502,0.0286 -0.34949,-0.0451 -0.55859,-0.21485 -0.005,-0.003 -0.008,-0.004 -0.0117,-0.006 -0.54861,-0.19569 -0.0432,-0.0208 -0.80859,-0.26367 -0.18917,-0.06 -0.37569,-0.12869 -0.56641,-0.18359 -0.24147,-0.0695 -0.48995,-0.11673 -0.73047,-0.18946 -0.176,-0.0532 -0.34813,-0.11821 -0.52148,-0.17968 -0.0995,0.004 -0.20802,-0.001 -1.01953,0.0234 -1.16863,0.0353 -2.36664,0.12703 -3.49414,-0.25195 -0.21576,-0.0796 -0.46099,-0.10506 -0.64844,-0.23828 -0.47602,-0.33831 -0.37305,-1.00088 -0.37305,-1.48633 l 0,-0.22656 c -0.09,-0.13044 -0.19028,-0.2559 -0.25391,-0.40039 -0.1734,-0.39383 -0.0445,-0.94189 0.0352,-1.3418 0.0523,0.079 0.0988,0.1626 0.15039,0.24219 -0.0178,-0.11504 0.0597,-0.34937 0.21875,-0.70313 -0.0479,-0.12102 -0.0402,-0.16649 0.0703,-0.16992 0,0 0,-0.002 0,-0.002 0.0138,-0.0287 0.0386,-0.0404 0.0684,-0.041 z m 8.69727,0.39258 c -0.16065,-0.21036 0.08,0.11157 -0.42774,-0.1914 0.10248,0.0776 0.15178,0.17677 0.17188,0.27929 0.10182,-0.0288 0.2111,-0.0572 0.25586,-0.0879 z m -0.79492,0.65039 c -0.0665,0.0113 -0.12849,0.0273 -0.20703,0.0273 l -6.80469,0 -0.14844,0 0,0.90234 c 0.13395,0.0856 0.2704,0.17748 0.4082,0.23437 0.0761,0.0314 0.79077,0.22279 0.79688,0.22461 0.83802,0.24909 1.34542,0.41746 2.18359,0.6875 0.42971,0.12833 0.84977,0.28787 1.27149,0.44141 0.12199,-0.004 0.17529,-0.0136 1.35351,-0.0332 0.56949,-0.002 1.74248,0.0168 2.39258,-0.0469 0.0373,-0.004 0.0728,-0.0172 0.10938,-0.0254 0.0258,-0.0524 0.0567,-0.10474 0.0762,-0.1582 0.0441,-0.0198 0.0332,-0.0182 0.0684,-0.0352 -0.0378,-0.087 -0.0721,-0.17882 -0.1211,-0.24804 -0.46304,-0.6541 -0.93292,-1.30485 -1.3789,-1.97071 z m -7.15039,2.09961 c 0.005,0.10196 0.008,0.20804 0.0254,0.29102 -10e-4,-0.0245 -0.009,-0.0555 0.004,-0.0645 0.0622,-0.044 0.1524,0.004 0.22852,0.006 0.39316,0.13331 0.79772,0.18798 1.20508,0.21875 -0.17738,-0.0549 -0.33937,-0.10995 -0.54102,-0.16992 -0.29401,-0.0874 -0.62871,-0.1653 -0.92187,-0.28125 z m 8.7207,0.26172 c -0.008,-0.005 -0.10022,-0.003 -0.13477,0.0273 -10e-4,9.2e-4 -9.1e-4,0.005 -0.002,0.006 0.0455,-0.0123 0.0913,-0.021 0.13672,-0.0332 z m 0.73828,0.32813 c -0.0109,0.0495 -0.0276,0.0911 -0.043,0.15234 0.008,-0.006 0.0112,-0.006 0.0195,-0.0117 0.0571,-0.30619 0.0516,-0.26821 0.0234,-0.14062 z m -1.6582,0.92773 c 0.0297,0.0333 0.0277,0.0384 0.13281,0.13477 0.0428,0.0392 -0.0669,-0.0998 -0.11719,-0.12891 -0.005,-0.003 -0.0106,-0.003 -0.0156,-0.006 z m 0.18555,0.88086 c -0.0418,0.0195 -0.074,0.025 -0.11133,0.0391 0.0523,0.006 0.0989,0.004 0.11133,-0.0391 z m 19.13476,5.43164 c -0.0795,0.0134 -0.1692,0.0218 -0.22852,0.0469 0.0111,0.086 0.0221,0.17186 0.0332,0.25782 0.0451,-0.0734 0.1114,-0.18197 0.19531,-0.30469 z"
           style="opacity:0;fill:#00ffff;fill-opacity:1;fill-rule:nonzero;stroke:#ff2929;stroke-width:0.1;stroke-linejoin:miter;stroke-miterlimit:4;stroke-dasharray:none;stroke-opacity:1" /><rect
           y="317.01633"
           x="333.33331"
           height="123.54312"
           width="270.39627"
           id="rect4515"
           style="opacity:0;fill:#00ffff;fill-opacity:1;fill-rule:nonzero;stroke:#ff2929;stroke-width:0.1;stroke-linejoin:miter;stroke-miterlimit:4;stroke-dasharray:none;stroke-opacity:1" /><ellipse
           ry="116.55012"
           rx="141.02563"
           cy="286.71329"
           cx="152.68066"
           id="path4544"
           style="opacity:0;fill:#00ffff;fill-opacity:1;fill-rule:nonzero;stroke:#ff2929;stroke-width:0.1;stroke-linejoin:miter;stroke-miterlimit:4;stroke-dasharray:none;stroke-opacity:1" /><path
           inkscape:connector-curvature="0"
           id="path4550"
           transform="translate(-13.986014,-11.655012)"
           d="m 602.56445,121.21289 a 297.20279,303.0303 0 0 0 -297.20312,303.0293 297.20279,303.0303 0 0 0 217.65429,291.97265 c 0.0163,-0.005 0.0325,-0.009 0.0488,-0.0137 0.15976,-0.0204 0.31777,-0.0507 0.47852,-0.0606 0.37777,-0.0233 0.75567,0.12335 1.13086,0.0762 0.0389,-0.005 0.0688,-0.0345 0.10351,-0.0527 0.8138,-0.21728 1.66252,-0.30137 2.50391,-0.28125 0.46426,0.0369 0.9278,0.0349 1.39258,0.0254 0.3782,-0.002 0.75654,0.002 1.13476,0.002 0.75673,-0.14797 0.75628,-0.19536 1.20899,-0.4336 0.26062,-0.13982 0.54485,-0.17798 0.83398,-0.16992 10e-4,-9.5e-4 0.003,-0.001 0.004,-0.002 -0.0202,-0.003 -0.0475,-4.6e-4 -0.0586,-0.008 -0.0336,-0.0223 0.0743,-0.0327 0.11132,-0.0488 0.0132,-0.008 0.0222,-0.005 0.0352,-0.0117 0.021,-0.0159 0.0485,-0.0373 0.0625,-0.0488 0.18978,-0.1563 0.33869,-0.13206 0.59961,-0.17969 l 0.22461,0.0332 c 1.42545,0.21938 -1.77658,1.35016 -0.33594,1.41796 0.0326,0.002 0.0652,0.004 0.0977,0.006 0.003,-10e-4 0.0117,-0.003 0.0156,-0.004 0.12491,-0.0845 0.24688,-0.17353 0.38086,-0.24219 0.0446,-0.0229 -0.0561,0.0839 -0.0898,0.12109 -0.0669,0.0739 -0.21721,0.0997 -0.29102,0.1211 -0.0768,0.0519 -0.15622,0.0989 -0.23437,0.14844 0.23844,-0.077 0.27058,-0.0981 0.11133,-0.0234 -0.28489,0.1216 -0.17347,0.087 -0.63086,0.16797 -0.0233,0.004 -0.002,-0.0309 -0.0215,-0.0293 -0.0946,0.007 -0.29407,0.11077 -0.33594,0.12891 0.0397,-0.0395 0.16603,-0.14967 0.11914,-0.11914 -0.10803,0.0703 -0.19672,0.16982 -0.30468,0.24023 -0.0611,0.0398 -0.13118,0.0636 -0.19922,0.0898 -0.42368,0.16302 -0.85325,0.24067 -1.30274,0.30274 -0.36872,2.6e-4 -0.73676,-0.003 -1.10547,-0.002 -0.24631,0.005 -0.49219,-0.0106 -0.73828,-0.0137 a 297.20279,303.0303 0 0 0 74.59961,9.92188 297.20279,303.0303 0 0 0 297.20313,-303.03125 297.20279,303.0303 0 0 0 -297.20313,-303.0293 z m 97.61914,121.4707 c 0.0353,-6.8e-4 0.076,0.0174 0.11914,0.041 0.0186,1.4e-4 0.0163,0 0.0371,0 l 0.73438,0 6.80469,0 c 0.25369,0 0.44479,0.0624 0.57226,0.1582 -0.0586,-0.035 -0.0846,-0.0413 -0.16601,-0.0957 -0.12009,-0.0803 0.27711,0.0794 0.41601,0.11914 0.22696,0.0648 0.25343,0.11928 0.17969,0.16992 0.0202,0.0265 0.0171,0.0223 0.0547,0.0703 0.44131,0.66073 0.9103,1.30447 1.36914,1.95313 0.18393,0.26002 1.26064,1.4616 0.29492,1.74609 -0.12106,0.0131 -0.22654,0.002 -0.33984,-0.0137 -0.0902,0.11656 -0.22553,0.19814 -0.36133,0.25586 -0.28625,0.12167 -0.94393,0.13843 -1.28906,0.14453 0.004,0.003 0.0332,0.0176 0.0371,0.0215 10e-4,6e-5 0.003,-1e-4 0.004,0 0.36811,0.0281 0.49179,0.14421 0.7793,0.34179 0.16598,0.11407 0.33017,0.22799 0.49219,0.34766 0.86071,0.63584 0.74777,0.56265 1.56835,1.25195 2.17207,1.87229 -0.28455,-0.22883 1.82813,1.53125 0.45643,0.36677 0.8794,0.77076 1.32812,1.14649 0.38214,0.31998 0.77353,0.62995 1.15625,0.94922 0.11634,0.10456 0.3086,0.25702 0.40625,0.39843 0.0419,0.0606 0.041,0.23103 0.10547,0.19532 0.12177,-0.0675 0.0655,-0.34392 0.20313,-0.36524 0.51883,-0.0804 5.38686,0.007 5.47656,0.008 1.95018,-0.01 3.873,0.30783 5.81055,0.45899 0.10605,0.008 0.28112,-0.0649 0.37109,-0.0449 0.0208,-0.0308 0.0148,-0.0252 0.0371,-0.0586 0.0572,-0.0857 0.20764,0.006 0.31055,0.01 0.21955,0.008 0.43652,0.0186 0.65625,0.0195 0.50022,-0.0218 0.26422,-0.0442 0.82812,0.57422 0.003,0.83863 0.007,0.26621 -0.0176,1.36328 -0.0132,0.61118 -0.0835,0.90999 0.1211,1.4707 0.11997,0.32887 0.12096,0.29711 0.33594,0.3418 0.69456,0.28694 1.06838,0.94139 1.38476,1.58008 3.1e-4,0.001 0.002,0.003 0.002,0.004 0.0294,0.0317 0.0579,0.063 0.0879,0.0977 0.66687,0.77154 -0.12922,1.45242 -0.78321,0.66992 -0.0694,-0.0831 -0.0158,-0.009 0.0703,0.0176 0.0683,0.0209 0.25771,0.0949 0.21094,0.041 -0.96662,-1.11491 -0.62477,-0.5602 -0.51172,-0.37305 -0.16967,-0.34266 -0.284,-0.58105 -0.55273,-0.86914 -0.0507,-0.0544 -0.0958,-0.11577 -0.1582,-0.15625 -0.10491,-0.0681 -0.22563,-0.11086 -0.33789,-0.16602 -0.14824,-0.12392 -0.32541,-0.21806 -0.44336,-0.37109 -0.3187,-0.41351 -0.4309,-0.95529 -0.47266,-1.45899 -0.0235,-0.28293 0.0115,-0.56772 0.0176,-0.85156 0.0145,-0.67038 0.0161,-0.67432 0.0254,-0.88867 -0.14181,-0.003 -0.2839,-0.008 -0.42578,-0.0137 -0.21671,0.16078 -0.72989,0.0994 -0.85352,0.0898 -1.90961,-0.14825 -3.80449,-0.465 -5.72656,-0.45508 -1.03277,-0.013 -2.0648,-0.0373 -3.09766,-0.0391 -0.77136,-0.001 -1.54524,0.0869 -2.31445,0.0293 -1.17103,-0.0877 -1.39406,-0.53408 -1.19141,-0.25586 l -0.23437,-0.21094 c -0.38797,-0.32377 -0.78444,-0.6385 -1.17188,-0.96289 -0.43995,-0.36836 -0.8557,-0.76488 -1.30273,-1.125 -2.11895,-1.76537 0.28085,0.28892 -1.8418,-1.54101 -0.78845,-0.66409 -0.66679,-0.58262 -1.5,-1.19922 -0.15327,-0.11342 -0.31003,-0.22351 -0.46679,-0.33204 -0.0725,-0.0502 -0.16955,-0.0809 -0.23243,-0.13671 -0.19502,0.0286 -0.34949,-0.0451 -0.55859,-0.21485 -0.005,-0.003 -0.008,-0.004 -0.0117,-0.006 -0.54861,-0.19569 -0.0432,-0.0208 -0.80859,-0.26367 -0.18917,-0.06 -0.37569,-0.12869 -0.56641,-0.18359 -0.24147,-0.0695 -0.48995,-0.11673 -0.73047,-0.18946 -0.176,-0.0532 -0.34813,-0.11821 -0.52148,-0.17968 -0.0995,0.004 -0.20802,-0.001 -1.01953,0.0234 -1.16863,0.0353 -2.36664,0.12703 -3.49414,-0.25195 -0.21576,-0.0796 -0.46099,-0.10506 -0.64844,-0.23828 -0.47602,-0.33831 -0.37305,-1.00088 -0.37305,-1.48633 l 0,-0.22656 c -0.09,-0.13044 -0.19027,-0.2559 -0.25391,-0.40039 -0.1734,-0.39383 -0.0445,-0.94189 0.0352,-1.3418 0.0523,0.079 0.0988,0.1626 0.15039,0.24219 -0.0178,-0.11504 0.0597,-0.34937 0.21875,-0.70313 -0.0479,-0.12102 -0.0402,-0.16649 0.0703,-0.16992 l 0,-0.002 c 0.0138,-0.0287 0.0386,-0.0404 0.0684,-0.041 z m 8.69727,0.39258 c -0.16065,-0.21036 0.08,0.11157 -0.42774,-0.1914 0.10249,0.0776 0.15178,0.17677 0.17188,0.27929 0.10182,-0.0288 0.2111,-0.0572 0.25586,-0.0879 z m -0.79492,0.65039 c -0.0665,0.0113 -0.12849,0.0273 -0.20703,0.0273 l -6.80469,0 -0.14844,0 0,0.90234 c 0.13395,0.0856 0.2704,0.17749 0.4082,0.23437 0.0761,0.0314 0.79077,0.22279 0.79688,0.22461 0.83802,0.24909 1.34542,0.41746 2.18359,0.6875 0.42971,0.12833 0.84977,0.28787 1.27149,0.44141 0.12199,-0.004 0.17529,-0.0136 1.35351,-0.0332 0.56949,-0.002 1.74248,0.0168 2.39258,-0.0469 0.0373,-0.004 0.0728,-0.0172 0.10938,-0.0254 0.0258,-0.0524 0.0567,-0.10474 0.0762,-0.1582 0.0441,-0.0198 0.0332,-0.0182 0.0684,-0.0352 -0.0378,-0.087 -0.0721,-0.17882 -0.1211,-0.24804 -0.46304,-0.6541 -0.93292,-1.30485 -1.3789,-1.97071 z m -7.15039,2.09961 c 0.005,0.10196 0.008,0.20804 0.0254,0.29102 -10e-4,-0.0245 -0.009,-0.0555 0.004,-0.0645 0.0622,-0.044 0.1524,0.004 0.22852,0.006 0.39316,0.13331 0.79772,0.18798 1.20508,0.21875 -0.17738,-0.0549 -0.33937,-0.10995 -0.54102,-0.16992 -0.29401,-0.0874 -0.62871,-0.1653 -0.92187,-0.28125 z m 8.7207,0.26172 c -0.008,-0.005 -0.10022,-0.003 -0.13477,0.0273 -10e-4,9.2e-4 -9.1e-4,0.005 -0.002,0.006 0.0455,-0.0123 0.0913,-0.021 0.13672,-0.0332 z m 0.73828,0.32813 c -0.0109,0.0495 -0.0276,0.0911 -0.043,0.15234 0.008,-0.006 0.0112,-0.006 0.0195,-0.0117 0.0571,-0.30619 0.0516,-0.26821 0.0234,-0.14062 z m -1.6582,0.92773 c 0.0297,0.0333 0.0277,0.0384 0.13281,0.13477 0.0428,0.0392 -0.0669,-0.0998 -0.11719,-0.12891 -0.005,-0.003 -0.0106,-0.003 -0.0156,-0.006 z m 0.18555,0.88086 c -0.0418,0.0195 -0.074,0.025 -0.11133,0.0391 0.0523,0.006 0.0988,0.004 0.11133,-0.0391 z m 19.13476,5.43164 c -0.0795,0.0134 -0.16919,0.0218 -0.22852,0.0469 0.0111,0.086 0.0221,0.17186 0.0332,0.25782 0.0451,-0.0734 0.1114,-0.18197 0.19531,-0.30469 z"
           style="opacity:0;fill:#00ffff;fill-opacity:1;fill-rule:nonzero;stroke:#ff2929;stroke-width:0.1;stroke-linejoin:miter;stroke-miterlimit:4;stroke-dasharray:none;stroke-opacity:1" /><path
           inkscape:connector-curvature="0"
           id="path4552"
           transform="translate(-13.986014,-11.655012)"
           d="M 480.18555,240.09375 A 414.91843,285.54779 0 0 0 65.267578,525.64062 414.91843,285.54779 0 0 0 480.18555,811.18945 414.91843,285.54779 0 0 0 895.10547,525.64062 414.91843,285.54779 0 0 0 480.18555,240.09375 Z m 52.41992,474.91406 0.22461,0.0332 c 1.42545,0.21938 -1.77658,1.35016 -0.33594,1.41796 0.0326,0.002 0.0652,0.004 0.0977,0.006 0.003,-10e-4 0.0117,-0.003 0.0156,-0.004 0.12491,-0.0845 0.24688,-0.17353 0.38086,-0.24219 0.0446,-0.0229 -0.0561,0.0839 -0.0898,0.12109 -0.0669,0.0739 -0.21721,0.0997 -0.29102,0.1211 -0.0768,0.0519 -0.15622,0.0989 -0.23437,0.14844 0.23844,-0.077 0.27058,-0.0981 0.11133,-0.0234 -0.28489,0.1216 -0.17347,0.087 -0.63086,0.16797 -0.0233,0.004 -0.002,-0.0309 -0.0215,-0.0293 -0.0946,0.007 -0.29407,0.11077 -0.33594,0.12891 0.0397,-0.0395 0.16603,-0.14967 0.11914,-0.11914 -0.10803,0.0703 -0.19672,0.16982 -0.30468,0.24023 -0.0611,0.0398 -0.13118,0.0636 -0.19922,0.0898 -0.42368,0.16302 -0.85325,0.24067 -1.30274,0.30274 -0.36872,2.6e-4 -0.73676,-0.003 -1.10547,-0.002 -0.48806,0.01 -0.97543,0.0124 -1.46289,-0.0254 -0.70875,-0.0231 -1.42452,0.0518 -2.10742,0.23828 -0.16707,0.0325 -0.33245,0.0822 -0.50195,0.0977 -0.40275,0.0369 -0.78652,-0.12834 -1.18555,-0.0684 -0.18509,0.0502 -0.86882,0.23778 -0.98242,0.25781 -0.18957,0.0334 -0.38189,0.0467 -0.57422,0.0547 -0.19169,0.008 -0.38538,-0.0378 -0.57617,-0.0176 -0.0734,0.008 -0.14275,0.0312 -0.21484,0.0469 -0.38038,0.10977 -0.76709,0.19489 -1.15821,0.25976 -0.0928,0.0154 -0.18885,0.01 -0.28125,0.0273 -1.20524,0.23199 0.39106,-0.0161 -0.66992,0.14062 -0.16076,0.0354 -0.32088,0.0758 -0.48242,0.10743 -0.12875,0.0253 -0.26177,0.0312 -0.38867,0.0644 -0.15303,0.0402 -0.29496,0.11147 -0.44727,0.15429 -0.33744,0.0949 -0.67488,0.0969 -1.01562,0.16602 -0.14445,0.0248 -0.28559,0.062 -0.43164,0.0742 -0.1482,0.0124 -0.29859,-0.005 -0.44727,-0.002 -0.44405,0.01 -0.6899,0.0204 -1.11523,0.0723 -0.46839,0.0572 -0.30102,0.12549 -0.45899,0.0566 -0.33921,0.052 -0.66974,0.15453 -1.01172,0.19141 -0.244,0.0263 -0.49529,-0.0178 -0.74023,0 -0.4321,2e-4 -0.86478,-8.4e-4 -1.29688,-0.002 -0.63664,0.002 -1.27357,0.009 -1.91015,-0.004 -0.0152,-2.6e-4 -0.5896,-0.0105 -0.66407,-0.01 -0.24385,0.003 -0.48685,0.0507 -0.73046,0.0606 -0.16785,0.007 -0.33593,0.004 -0.50391,0.006 -0.51184,-0.0391 -0.68553,-0.031 -1.17187,-0.14453 -0.253,-0.0591 -0.55549,-0.0351 -0.75196,-0.20508 -0.13926,-0.12049 -0.24976,-0.26812 -0.34375,-0.42969 -0.095,-0.0386 -0.19375,-0.0806 -0.26758,-0.11914 -0.0661,-0.0345 10e-4,-0.21942 -0.16211,-0.15234 -0.15715,-0.054 -0.32584,-0.0704 -0.48828,-0.10547 -0.235,-0.045 -0.46735,-0.1076 -0.70508,-0.13477 -1.12662,-0.12877 -2.26024,-0.0524 -3.39062,-0.0703 l -2.0625,0 -1.54102,0 c -0.72508,-10e-6 -1.45069,-10e-5 -2.17578,0 -0.84367,9e-5 -1.68562,-0.002 -2.52929,-0.002 -0.55491,3.8e-4 -1.11112,0.004 -1.66602,-0.002 -0.70752,-0.006 -1.41384,0.0209 -2.12109,0.0156 -0.0723,-0.0112 -0.1449,-0.0215 -0.2168,-0.0352 -0.0429,-0.008 -0.0862,-0.0155 -0.12695,-0.0312 -0.006,-0.002 9.1e-4,-0.0191 -0.006,-0.0195 -0.76213,-0.0387 -1.52304,0.10126 -2.27344,0.20703 -1.42812,0.20129 -1.6916,-1.24521 -0.26172,-1.43359 l 0,-0.002 c 0.83527,-0.11004 1.68688,-0.27966 2.53516,-0.22852 0.18827,0.0113 0.3567,0.0864 0.54101,0.0957 0.64664,-0.0273 1.29424,-0.0308 1.94141,-0.0254 0.55054,0.006 1.10179,0.002 1.65234,0.002 0.84395,1.2e-4 1.68729,8e-5 2.53125,0 0.72514,-1e-4 1.45064,-1e-5 2.17578,0 l 1.54102,0 2.0625,0 c 1.16129,0.0161 2.32474,-0.0547 3.48242,0.0742 0.295,0.0329 0.58472,0.10415 0.87696,0.15625 0.46583,0.0432 0.85868,0.24054 1.22265,0.51172 -0.0139,-0.0147 -0.0447,-0.029 -0.0371,-0.041 0.008,-0.0122 0.24935,0.0905 0.28516,0.10547 0.73692,2.36794 0.17164,0.79531 0.30859,0.43359 0.0318,-0.0839 0.18051,-0.002 0.26953,0.01 1.16334,0.14697 -0.15462,0.0481 0.97461,0.11719 0.12601,-0.003 0.25108,-0.004 0.37696,-0.01 0.22143,-0.0115 0.4421,-0.0541 0.66406,-0.0586 0.21628,-0.004 0.56825,0.005 0.78125,0.008 0.62699,0.0133 1.25382,0.006 1.88086,0.004 0.43327,10e-4 0.86556,9e-5 1.29883,0 0.24511,-0.0181 0.49804,0.0267 0.74218,0 0.0665,-0.007 0.1265,-0.0403 0.19141,-0.0566 0.27686,-0.0695 0.31996,-0.0709 0.58789,-0.11523 0.0841,-0.003 0.16841,3e-5 0.25195,-0.01 0.0646,-0.008 0.12695,-0.0343 0.19141,-0.043 0.47779,-0.0648 0.8135,-0.0793 1.30469,-0.0918 0.59911,-0.0152 0.33142,0.0546 0.64258,-0.0449 0.3247,-0.0919 0.66333,-0.0532 0.98437,-0.15821 0.0958,-0.0313 0.18568,-0.0822 0.2832,-0.10742 0.34534,-0.0896 0.69858,-0.1454 1.04688,-0.22266 0.13491,-0.0212 0.27052,-0.0351 0.40429,-0.0625 0.0636,-0.0131 0.12175,-0.0465 0.18555,-0.0586 0.46943,-0.0891 0.95312,-0.12525 1.40821,-0.27734 0.5303,-0.19648 1.09623,-0.0242 1.63671,-0.13867 0.25591,-0.0542 0.50337,-0.14642 0.75586,-0.21485 0.15976,-0.0204 0.31777,-0.0507 0.47852,-0.0606 0.37777,-0.0233 0.75567,0.12335 1.13086,0.0762 0.0389,-0.005 0.0688,-0.0345 0.10351,-0.0527 0.8138,-0.21728 1.66252,-0.30137 2.50391,-0.28125 0.46426,0.0369 0.9278,0.0349 1.39258,0.0254 0.3782,-0.002 0.75654,0.002 1.13476,0.002 0.75673,-0.14797 0.75628,-0.19536 1.20899,-0.4336 0.26062,-0.13982 0.54485,-0.17798 0.83398,-0.16992 10e-4,-9.5e-4 0.003,-0.001 0.004,-0.002 -0.0202,-0.003 -0.0475,-4.6e-4 -0.0586,-0.008 -0.0336,-0.0223 0.0743,-0.0327 0.11132,-0.0488 0.0132,-0.008 0.0222,-0.005 0.0352,-0.0117 0.021,-0.0159 0.0485,-0.0373 0.0625,-0.0488 0.18978,-0.1563 0.33869,-0.13206 0.59961,-0.17969 z"
           style="opacity:0;fill:#00ffff;fill-opacity:1;fill-rule:nonzero;stroke:#ff2929;stroke-width:0.1;stroke-linejoin:miter;stroke-miterlimit:4;stroke-dasharray:none;stroke-opacity:1" /><rect
           y="229.5238"
           x="663.03986"
           height="47.902771"
           width="1.8543228"
           id="rect4712"
           style="opacity:0;fill:#00ffff;fill-opacity:1;fill-rule:nonzero;stroke:#ff2929;stroke-width:0.5;stroke-linejoin:miter;stroke-miterlimit:4;stroke-dasharray:none;stroke-opacity:1" /><path
           sodipodi:nodetypes="cscsscccssccccsccccssscsccsc"
           inkscape:connector-curvature="0"
           id="path4208-0"
           d="m 637.45618,210.20597 c 22.69389,33.44319 43.72588,44.63916 82.92439,44.63916 36.59252,0 44.95385,-50.3906 78.07173,-57.80561 44.41049,-9.98756 56.89756,-52.66286 105.32565,-52.66286 33.76937,0 87.30128,29.50988 87.30128,75.36187 0,63.1032 -36.81011,138.7642 -57.44091,151.92959 -4.77766,3.02656 -5.64547,2.72449 -4.01672,-5.44715 2.17165,-11.19818 8.14373,-31.17271 3.8004,-33.4426 l -0.21844,0 c -2.606,0 -21.71577,29.65942 -28.44794,29.65942 -0.86867,0 -1.6296,-0.60589 -1.95535,-2.11915 -0.6515,-2.42122 8.25362,-21.78927 5.10468,-35.25734 -1.19442,-4.99379 -18.13338,23.7565 -30.9462,25.42109 -9.55531,1.0593 26.92821,-29.35736 11.5094,-40.10156 -4.77767,-3.48051 -28.55737,3.02654 -34.2037,3.02654 -1.303,0 -2.17125,-0.30206 -2.27983,-0.90739 -0.32575,-2.11856 9.12055,-9.53417 12.05232,-16.4952 1.62874,-3.78314 1.19356,-4.23714 -1.41244,-5.29641 -8.46948,-3.48052 -36.2655,-2.11624 -33.98525,-7.41263 0.97723,-2.42124 12.59522,-4.53982 27.25395,-4.53982 17.26472,0 40.17534,5.29643 41.91267,5.29643 23.77972,0 41.47793,-24.97067 41.47793,-55.53866 0,-24.81758 -11.94372,-39.04228 -32.68312,-42.37146 -1.1944,-0.15133 -2.38798,-0.15073 -3.4738,-0.15073 -17.4819,0 -38.5466,19.06716 -59.286,30.26533 -24.64837,13.61941 -47.99545,18.91585 -51.14436,21.94236 -24.32262,21.33707 -36.26592,55.84015 -70.25243,55.84015 -25.08271,0 -43.02822,-17.28956 -74.19159,-17.28956"
           style="display:inline;stroke-width:0.1;stroke-miterlimit:4;stroke-dasharray:none" /><path
           id="path4538-2"
           d="m 827.73211,295.45416 c 0,0.1 0,0.1 0.1,0.2 2.2,4.2 7.3,4.7 23.1,7.1 2.3,0.3 2.7,1.1 1.1,2.4 -6.2,5.2 -3.5,13 5.1,13 5.5,0 20.30001,-2.8 26.90001,-2.8 3.5,0 -3.3,6.4 -5.9,9 -4.4,4.5 -7.3,7.5 -7.3,11.4 0.1,3.6 3.1,6.7 7.2,6.7 2,0 4.4,-0.8 7.8,-2.8 -2.8,5.9 -6.8,11.4 -11.9,16.7 -15.70001,16.2 -39.50001,26.8 -60.30001,26.8 -46.3,0 -58.5,-23 -59.3,-32 -0.8,-9.5 3.7,-20 12.6,-29.6 14.3,-14.8 36.6,-24.3 60.8,-26.1 z"
           style="display:inline;stroke-width:0.1;stroke-miterlimit:4;stroke-dasharray:none"
           inkscape:connector-curvature="0" /></g></g></g></svg>