<?xml version="1.0" encoding="utf-8"?>
<!-- Svg Vector Icons : http://www.onlinewebfonts.com/icon -->
<!DOCTYPE svg PUBLIC "-//W3C//DTD SVG 1.1//EN" "http://www.w3.org/Graphics/SVG/1.1/DTD/svg11.dtd">
<svg version="1.1" xmlns="http://www.w3.org/2000/svg" xmlns:xlink="http://www.w3.org/1999/xlink" x="0px" y="0px" viewBox="0 0 1000 1000" enable-background="new 0 0 1000 1000" xml:space="preserve">
<metadata> Svg Vector Icons : http://www.onlinewebfonts.com/icon </metadata>
<g><path d="M165.2,298.6c0,0.1,0,0.1-0.1,0.2c-2.2,4.2-7.3,4.7-23.1,7.1c-2.3,0.3-2.7,1.1-1.1,2.4c6.2,5.2,3.5,13-5.1,13c-5.5,0-20.3-2.8-26.9-2.8c-3.5,0,3.3,6.4,5.9,9c4.4,4.5,7.3,7.5,7.3,11.4c-0.1,3.6-3.1,6.7-7.2,6.7c-2,0-4.4-0.8-7.8-2.8c2.8,5.9,6.8,11.4,11.9,16.7c15.7,16.2,39.5,26.8,60.3,26.8c46.3,0,58.5-23,59.3-32c0.8-9.5-3.7-20-12.6-29.6C211.7,309.9,189.4,300.4,165.2,298.6z M314.3,344.4c-34,0-47.6,12.2-63.4,13.1c-0.6,3.2-1.8,6.4-3.7,9.7c4,0.9,8.3,1.2,11.2,1.2c22.1,0,48.1-21.9,91.6-4.5c-1.9-4.7-3.9-9.7-5.6-14.6C335.5,346.5,325,344.4,314.3,344.4z M688,344.4c-10.4,0-20.5,2-29.1,4.9c-1.7,4.9-3.7,9.9-5.4,14.6c41.9-17.4,67,4.5,88.3,4.5c2.9,0,7.1-0.3,10.9-1.2c-1.8-3.3-2.9-6.6-3.4-9.8C733.9,356.6,720.9,344.4,688,344.4z M877.7,338.9c-0.1-4,3-6.8,7.3-11.4c2.6-2.6,9.5-9,5.9-9c-3.8,0-9.7,0.8-14.9,1.6c-4.9,0.6-9.1,1.2-12,1.2c-6.4,0-7.8-3.7-8.2-5.4c-1-3.9,2-5.9,4.8-9c0,0-0.2-0.8-0.8-0.8c-17.4-1.4-22.7-2.9-25-7.3c0,0,0-0.1-0.1-0.2c-24.2,1.8-46.6,11.4-60.8,26.3c-9,9.5-13.4,20-12.7,29.6c0.8,8.9,13,32,59.3,32c20.9,0,44.6-10.5,60.3-26.8c5.1-5.3,9-10.9,11.9-16.7c-3.5,2-5.9,2.8-7.8,2.8C881,345.6,877.8,342.5,877.7,338.9z M909.6,203.3c-44.7,0-56.1,28.2-97,34.8c-30.6,4.9-38.3,38.2-72,38.2c-36.2,0-65.1-37.2-86-59.3c-25.1-51.7-98-73.6-154.5-72.3c-51-1.2-128.1,17.8-154.6,72.3c-20.9,22.1-49.9,59.3-86,59.3c-33.7,0-41.4-33.3-71.9-38.2c-40.9-6.6-52.4-34.8-97-34.8c-31.1,0-80.4,19.5-80.4,49.8c0,41.7,33.9,91.7,52.9,100.4c4.4,2,5.2,1.8,3.7-3.6c-2-7.4-7.5-20.6-3.5-22.1h0.2c2.4,0,20,19.6,26.2,19.6c0.8,0,1.5-0.4,1.8-1.4c0.6-1.6-7.6-14.4-4.7-23.3c1.1-3.3,16.7,15.7,28.5,16.8c8.8,0.7-24.8-19.4-10.6-26.5c4.4-2.3,26.3,2,31.5,2c1.2,0,2-0.2,2.1-0.6c0.3-1.4-8.4-6.3-11.1-10.9c-1.5-2.5-1.1-2.8,1.3-3.5c7.8-2.3,33.4-1.4,31.3-4.9c-0.9-1.6-11.6-3-25.1-3c-15.9,0-37,3.5-38.6,3.5c-21.9,0-38.2-16.5-38.2-36.7c0-16.4,11-25.8,30.1-28c1.1-0.1,2.2-0.1,3.2-0.1c16.1,0,35.5,12.6,54.6,20c22.7,9,44.2,12.5,47.1,14.5c22.4,14.1,33.4,36.9,64.7,36.9c23.1,0,41.8-23.4,70.5-23.4c3,0,6,0.2,9.2,0.8c5.2,46.2,83.6,184.2,119.4,231.9c-12.6-9.2-36-30.6-46.2-42.3c0,0.4,0.1,0.7,0.1,1c-0.4,47-22,66-17.2,95c7.1,43,32.1,77.5,85.5,134.6c-42.3-17.4-56.5-36.4-64.2-55.7c4.4,17.1,6.3,38,2.8,80.2c-2.2,25.7,11.7,69.1,15.1,102.2c1.1,10.3-3.9,20-0.5,27.2c0.6,1.3,1.4,1.7,2.2,1.7c6.8,0,21.7-29.4,66-21.7c43.9-7.6,59.7,21.6,66,21.6c0.9,0,1.6-0.5,2.2-1.7c3.5-7.1-1.6-16.9-0.5-27.2c3.5-33.2,17.3-76.6,15.1-102.2c-3.5-42.2-1.5-63,2.9-80.2c-10,24-30.1,42.9-60.3,54.7c51.9-54.5,74.7-90.3,81.7-133.5c4.7-28.9-16.7-48-17.3-94.9v-1c-10.2,11.7-32.6,29.5-45.2,38.7c41-51.4,112.5-176.4,118.5-228.3c3.1-0.6,6.2-0.8,9.2-0.8c28.6,0,47.4,23.4,70.6,23.4c31.3,0,42.2-22.9,64.5-37c3-2,24.6-5.4,47.2-14.5c19.1-7.5,38.6-20,54.6-20c1.1,0,2.1,0.1,3.3,0.1c19,2.3,30,11.6,30,28c0,20.2-16.2,36.7-38.4,36.7c-2.7,0-5.7-0.4-8.7-0.9c-9.9-1.9-20.6-2.6-29.8-2.6c-13.5,0-24.2,1.5-25.1,3c-2.2,3.5,22.1,4.7,30.8,5.6c2.9,0.2,3.2,0.1,1.8,2.6c-2.5,4.6-11.6,8.8-11.1,11c0.2,0.4,0.9,0.6,2.1,0.6c5.4,0,19.1-2.8,26.9-2.8c2,0,3.7,0.1,4.6,0.6c14.2,7.1-18.8,26.5-10.6,26.5c2.3,0,15.5-8.3,22.9-13.3c6-3.1,6.1-6.1,6.1,0.6c0,8.3-5.8,17.9-5.2,19.2c0.4,1.1,1,1.4,1.8,1.4c6.1,0,23.7-19.6,26.2-19.6c5.2,0-6,27-3.5,27c13.9,0,56.6-54,56.6-101.6C990,222.9,940.7,203.3,909.6,203.3z"/></g>
</svg>